# xmcd
#
# Track frame offsets:
#	150
#	13575
#	30525
#	47107
#	69232
#	84975
#	99270
#	119745
#
# Disc length: 1775 seconds
# Revision: 0
# Processed by: cddbd v1.5.2PL0 Copyright (c) Steve Scherf et al.
# Submitted via: dBpowerAMP V12.0
#
DISCID=5b06ed08
DTITLE=The Black Sorrows - Crooked Little Thoughts
DYEAR=2012
DGENRE=Blues
TTITLE0=The Stars in the Sky
TTITLE1=Only Time Will Tell
TTITLE2=Long Cold Night
TTITLE3=The Spell is Broken
TTITLE4=Life's Sad Parade
TTITLE5=Until the Day I Die
TTITLE6=It's Only Xmas
TTITLE7=Dustbowl Blues
EXTD=
EXTT0=
EXTT1=
EXTT2=
EXTT3=
EXTT4=
EXTT5=
EXTT6=
EXTT7=
PLAYORDER=
